<svg width="190" height="38" xmlns="http://www.w3.org/2000/svg">
 <!-- Created with Method Draw - http://github.com/duopixel/Method-Draw/ -->

 <g>
  <title>background</title>
  <rect fill="none" id="canvas_background" height="40" width="192" y="-1" x="-1"/>
  <g display="none" overflow="visible" y="0" x="0" height="100%" width="100%" id="canvasGrid">
   <rect fill="url(#gridpattern)" stroke-width="0" y="0" x="0" height="100%" width="100%"/>
  </g>
 </g>
 <g>
  <title>Layer 1</title>
  <g id="svg_16">
   <g transform="matrix(2.1239107634096968,0,0,2.1239107634096968,0,0) " fill-rule="evenodd" fill="none" id="svg_9">
    <g fill="#FFFFFF" id="svg_10">
     <g id="svg_11">
      <g id="svg_12">
       <g id="svg_13">
        <path fill="#ffffff" id="svg_14" d="m61.780349,11.635228l-0.69478,0.67916c-0.16057,0.09142 -0.32027,0.19755 -0.47955,0.27291c-0.48256,0.22698 -0.9733,0.28406 -1.40937,0.28406c-0.46405,0 -1.19155,-0.03122 -1.93368,-0.58729c-1.03099,-0.75229 -1.48169,-2.0455 -1.48169,-3.17237c0,-2.33312 1.83338,-3.47738 3.32885,-3.47738c0.52259,0 1.05939,0.13556 1.49589,0.42141c0.72578,0.49721 0.91347,1.14337 1.01764,1.48941l-3.41494,1.42921l-1.11837,0.09008c0.36202,1.91305 1.61126,3.02566 2.99179,3.02566c0.68961,0 1.20145,-0.23323 1.67109,-0.47359c0,0 0.09428,-0.05083 0.02712,0.01873zm-2.06024,-3.80514c0.27722,-0.10435 0.42143,-0.19442 0.42143,-0.40401c0,-0.60112 -0.65647,-1.29544 -1.43993,-1.29544c-0.58028,0 -1.66981,0.46823 -1.66981,2.0941c0,0.25374 0.02927,0.52397 0.04391,0.79421l2.6444,-1.18886zm-5.08002,3.68876c0,0.58461 0.10073,0.67558 0.57813,0.72151c0.24881,0.03033 0.49676,0.04371 0.74213,0.07403l-0.53723,0.33133l-2.56002,0c0.33577,-0.45129 0.39345,-0.49633 0.39345,-0.79688l0,-0.33579l-0.0056,-8.94719l-1.13042,0l1.08824,-0.54315l2.07746,0c-0.45027,0.27024 -0.58501,0.43479 -0.64269,0.96143l-0.00345,8.53471zm-3.97025,-5.14607c0.33361,0.28406 1.02969,0.88696 1.02969,2.03034c0,1.11438 -0.60654,1.63969 -1.21824,2.1369c-0.18769,0.19577 -0.40723,0.40803 -0.40723,0.73624c0,0.33311 0.21954,0.51371 0.37753,0.64838l0.52474,0.41963c0.63796,0.55786 1.21953,1.06934 1.21953,2.10837c0,1.41539 -1.32241,2.84282 -3.82131,2.84282c-2.10501,0 -3.12265,-1.03858 -3.12265,-2.15207c0,-0.54181 0.26043,-1.30926 1.11966,-1.83502c0.90055,-0.57034 2.12051,-0.6466 2.77397,-0.69119c-0.20404,-0.27291 -0.43693,-0.55876 -0.43693,-1.0252c0,-0.25507 0.07404,-0.40714 0.1455,-0.5864c-0.15885,0.01561 -0.31898,0.03166 -0.46448,0.03166c-1.54067,0 -2.41151,-1.19064 -2.41151,-2.36389c0,-0.69209 0.30477,-1.45998 0.93068,-2.01651c0.82823,-0.70635 1.81574,-0.82809 2.60049,-0.82809l2.99351,0l-0.93068,0.54403l-0.90227,0zm-1.02927,6.68052c-0.11924,-0.01605 -0.1907,-0.01605 -0.33447,-0.01605c-0.13173,0 -0.91648,0.02943 -1.52431,0.2408c-0.32156,0.12174 -1.25096,0.48161 -1.25096,1.55051c0,1.06667 1.00344,1.8359 2.55573,1.8359c1.39473,0 2.13514,-0.69253 2.13514,-1.62498c0,-0.76745 -0.47911,-1.17235 -1.58113,-1.98618zm0.41756,-2.85932c0.33577,-0.34738 0.36504,-0.8272 0.36504,-1.09967c0,-1.08228 -0.62289,-2.7679 -1.83037,-2.7679c-0.37666,0 -0.78475,0.19576 -1.01635,0.49855c-0.2458,0.31349 -0.31941,0.72018 -0.31941,1.11126c0,1.00781 0.56737,2.67917 1.81531,2.67917c0.36418,0 0.75591,-0.18328 0.98578,-0.42141zm-8.39466,2.64616c-2.30906,0 -3.54452,-1.86266 -3.54452,-3.54917c0,-1.97058 1.55315,-3.65665 3.76234,-3.65665c2.13558,0 3.47306,1.732 3.47306,3.55051c0,1.77615 -1.32198,3.65531 -3.69088,3.65531zm1.8166,-1.21739c0.35126,-0.48161 0.4365,-1.08273 0.4365,-1.66868c0,-1.32531 -0.60955,-3.85286 -2.41108,-3.85286c-0.47912,0 -0.96168,0.19398 -1.3095,0.51059c-0.56737,0.52665 -0.66853,1.18841 -0.66853,1.83769c0,1.48674 0.70942,3.93892 2.47006,3.93892c0.56822,0 1.14807,-0.28495 1.48255,-0.76566zm-9.54747,1.21739c-2.30949,0 -3.5428,-1.86266 -3.5428,-3.54917c0,-1.97058 1.55358,-3.65665 3.76191,-3.65665c2.13429,0 3.47048,1.732 3.47048,3.55051c0,1.77615 -1.32026,3.65531 -3.68959,3.65531zm1.81703,-1.21739c0.34868,-0.48161 0.43564,-1.08273 0.43564,-1.66868c0,-1.32531 -0.61128,-3.85286 -2.41109,-3.85286c-0.48083,0 -0.95823,0.19398 -1.30691,0.51059c-0.56823,0.52665 -0.66896,1.18841 -0.66896,1.83769c0,1.48674 0.71244,3.93892 2.47006,3.93892c0.56693,0 1.14592,-0.28495 1.48126,-0.76566zm-6.28319,0.69521l-1.94746,0.46198c-0.78906,0.12888 -1.49762,0.24214 -2.24794,0.24214c-3.75631,0 -5.18763,-2.86422 -5.18763,-5.10592c0,-2.73758 2.02796,-5.27583 5.50102,-5.27583c0.73482,0 1.44165,0.11193 2.08564,0.29387c1.02065,0.29699 1.49805,0.6631 1.79637,0.87759l-1.13129,1.11305l-0.47696,0.11059l0.34007,-0.56143c-0.4606,-0.466 -1.30734,-1.3262 -2.9143,-1.3262c-2.14849,0 -3.76923,1.69187 -3.76923,4.16189c0,2.65285 1.85061,5.14829 4.81872,5.14829c0.87214,0 1.32112,-0.18149 1.72878,-0.35095l0,-2.27426l-2.05637,0.11461l1.08996,-0.60647l2.88589,0l-0.35298,0.35184c-0.09514,0.08384 -0.10805,0.11238 -0.13474,0.22475c-0.01421,0.12843 -0.02755,0.5369 -0.02755,0.6805l0,1.71996zm36.50113,-0.61851l0,3.83279l-0.73482,0l0,-9.75299l0.73482,0l0,1.11082c0.47869,-0.71796 1.35341,-1.28697 2.36933,-1.28697c1.82219,0 3.04947,1.43189 3.04947,3.69857c0,2.25151 -1.22728,3.71328 -3.04947,3.71328c-0.9591,0 -1.81832,-0.51238 -2.36933,-1.3155zm4.62931,-2.39778c0,-1.70837 -0.85966,-3.01138 -2.38396,-3.01138c-0.94661,0 -1.8519,0.77057 -2.24535,1.44259l0,3.12197c0.39345,0.67336 1.29874,1.47203 2.24535,1.47203c1.5243,0 2.38396,-1.31417 2.38396,-3.02521zm1.79292,-6.21541l0.73439,0l0,9.75299l-0.73439,0l0,-9.75299zm8.97968,11.81543c0.15712,0.07269 0.4253,0.11728 0.59534,0.11728c0.44942,0 0.76237,-0.19041 1.04347,-0.86288l0.53594,-1.25797l-2.8945,-7.11887l0.81962,0l2.48297,6.16903l2.45886,-6.16903l0.83125,0l-3.53032,8.61274c-0.36633,0.8874 -0.94273,1.31416 -1.73437,1.31416c-0.23762,0 -0.55101,-0.0437 -0.73439,-0.10212l0.12613,-0.70234zm-2.14634,-2.0834c-0.04908,-0.24481 -0.0861,-0.46065 -0.11322,-0.6408c-0.02238,-0.17971 -0.0353,-0.36344 -0.0353,-0.55028c-0.25182,0.38305 -0.60869,0.7019 -1.06456,0.95296c-0.4563,0.25284 -0.88979,0.37681 -1.48427,0.37681c-0.71588,0 -1.27162,-0.18239 -1.66808,-0.55251c-0.39518,-0.36968 -0.59406,-0.87046 -0.59406,-1.50413c0,-0.63278 0.28799,-1.1465 0.86224,-1.53936c0.57425,-0.39465 1.31639,-0.59086 2.23502,-0.59086l1.71371,0l0,-0.87715c0,-0.50524 -0.16616,-0.90257 -0.49805,-1.19064c-0.33319,-0.28852 -0.80068,-0.43434 -1.40679,-0.43434c-0.55402,0 -1.00343,0.13333 -1.34566,0.39287c-0.33921,0.26488 -0.51011,0.59309 -0.51011,0.98863l-0.75204,0l-0.0155,-0.03791c-0.02712,-0.53333 0.20835,-1.00111 0.70899,-1.40513c0.49849,-0.40357 1.15152,-0.60647 1.95521,-0.60647c0.80112,0 1.44941,0.19978 1.93799,0.59844c0.48816,0.39466 0.7331,0.965 0.7331,1.7106l0,3.48273c0,0.25017 0.01162,0.49187 0.04176,0.72732c0.03099,0.2359 0.0805,0.47135 0.14636,0.69922l-0.84674,0zm-2.60738,-0.55474c0.62419,0 1.07274,-0.14448 1.53119,-0.43032c0.45544,-0.28406 0.76538,-0.65463 0.92767,-1.10324l0,-1.35563l-1.72189,0c-0.65776,0 -1.20231,0.15072 -1.63063,0.45485c-0.42919,0.30323 -0.64657,0.67023 -0.64657,1.09699c0,0.40268 0.13775,0.72464 0.41153,0.96857c0.27464,0.2466 0.65001,0.36878 1.1287,0.36878zm-74.34201,3.23812c-0.2365,-0.06523 -0.39043,-0.30562 -0.39043,-0.67763l0,-12.27934c0,-0.34453 0.13034,-0.5769 0.33695,-0.66138l5.89374,6.8431l-5.84026,6.77525zm0.81131,-0.26065l5.36631,-6.12289l1.72789,2.00622l-7.0942,4.11667zm7.14306,-8.96716l-1.76652,2.04932l-5.22882,-6.10956l6.99534,4.06024zm0.47462,0.27548l2.74039,1.59058c0.51886,0.30116 0.5236,0.78662 0,1.09046l-2.80972,1.63044l-1.83265,-2.14134l1.90198,-2.17014z"/>
       </g>
      </g>
     </g>
    </g>
   </g>
  </g>
 </g>
</svg>